<svg xmlns="http://www.w3.org/2000/svg" viewBox="0 0 399.83 61.44"><defs><style>.cls-1{fill:#003e76;}.cls-2{fill:#c64830;}.cls-3,.cls-4{fill:#8b1335;}.cls-4{fill-rule:evenodd;}</style></defs><title>aeroRecurso 1delta</title><g id="Capa_2" data-name="Capa 2"><g id="Layer_1" data-name="Layer 1"><path class="cls-1" d="M107.63,6.76H106V55.48h19.65a38.89,38.89,0,0,0,8.37-.81,21.13,21.13,0,0,0,6.46-2.48,19.2,19.2,0,0,0,5-4.5,23.36,23.36,0,0,0,3.67-7.12,30.79,30.79,0,0,0,1.42-9.7,29.82,29.82,0,0,0-2.09-11.43A20.3,20.3,0,0,0,142,11a19.4,19.4,0,0,0-8-3.56,46.91,46.91,0,0,0-9.22-.68Zm17.07,8.66a26.77,26.77,0,0,1,8,.84,10.91,10.91,0,0,1,5.43,4.49c1.52,2.26,2.29,5.64,2.29,10A24.39,24.39,0,0,1,139.21,39,12.59,12.59,0,0,1,136,44.06a9.85,9.85,0,0,1-3.84,2,26.86,26.86,0,0,1-7.28.77h-9V15.42Z"/><path class="cls-1" d="M107.63,53.85V8.39h17.2a46.07,46.07,0,0,1,8.89.65A17.64,17.64,0,0,1,141,12.3,18.41,18.41,0,0,1,147,20.07a27.92,27.92,0,0,1,2,10.8,28.91,28.91,0,0,1-1.33,9.18,21.32,21.32,0,0,1-3.4,6.62,17.53,17.53,0,0,1-4.55,4.13,19.71,19.71,0,0,1-6,2.28,37.7,37.7,0,0,1-8,.77Zm6.59-5.4h10.65a28.17,28.17,0,0,0,7.74-.83,11.51,11.51,0,0,0,4.48-2.35,14.13,14.13,0,0,0,3.65-5.75,25.48,25.48,0,0,0,1.32-8.74q0-7.12-2.58-10.94a12.54,12.54,0,0,0-6.24-5.12,28.15,28.15,0,0,0-8.54-.93H114.22Z"/><path class="cls-1" d="M211.15,6.76H178.93V55.48h34.93V46.82H188.19V34.61H211.1V26H188.19V15.42h24.59V6.76Z"/><path class="cls-1" d="M180.56,53.85V8.39h30.59v5.4H186.56V27.58h22.91V33H186.56V48.45h25.67v5.4Z"/><path class="cls-1" d="M253.37,6.76h-7.63V55.48h31.57V46.82H255V6.76Z"/><path class="cls-1" d="M247.37,53.85V8.39h6V48.45h22.31v5.4Z"/><path class="cls-1" d="M331.56,6.76H293.94v8.66h15V55.48h9.26V15.42h15V6.76Z"/><path class="cls-1" d="M310.56,53.85V13.79h-15V8.39h36v5.4h-15V53.85Z"/><path class="cls-1" d="M377.05,6.76h-7.77L348.61,55.48h9.87l4.93-13.79h20.86l5.18,13.79h10.38L378.15,6.76Zm-3.34,11.73c.79,2.34,1.59,4.68,1.59,4.68l3.89,10.34h-10.8l4.18-11.09h0C373.05,21.15,373.32,19.8,373.71,18.49Z"/><path class="cls-1" d="M351,53.85,370.4,8.39h6.65l20.36,45.46h-6.83L385.4,40.06H362.26l-4.93,13.79Zm15-18.71h15.52l-4.72-12.53q-2.1-5.74-3.24-9.54A56,56,0,0,1,371,21.84Z"/><polygon class="cls-2" points="0 53.85 35.65 0 35.65 37.84 0 53.85"/><polygon class="cls-2" points="35.65 44.89 35.65 61.44 0.12 61.44 35.65 44.89"/><polygon class="cls-3" points="71.31 53.85 35.65 0 35.65 37.84 71.31 53.85"/><polygon class="cls-3" points="35.65 44.89 35.65 61.44 71.18 61.44 35.65 44.89"/><path class="cls-4" d="M76.65,53.82a2.14,2.14,0,1,0-2.14-2.14,2.14,2.14,0,0,0,2.14,2.14Zm0-.4a1.74,1.74,0,1,1,0-3.47,1.74,1.74,0,0,1,0,3.47Zm.5-1.55c.41,0,.63-.2.63-.62a.71.71,0,0,0-.27-.61,1.35,1.35,0,0,0-.63-.1H75.77v2.3h.44v-1h.46l.51,1h.53l-.56-1Zm-.94-.34v-.66h.56c.23,0,.56,0,.56.31s-.18.35-.44.35Z"/></g></g></svg>