<svg xmlns="http://www.w3.org/2000/svg" viewBox="0 0 206.6 45.53"><defs><style>.cls-1{fill:#b22231;}.cls-2{fill:#eec241;}</style></defs><title>aeroRecurso 1iberia</title><g id="Capa_2" data-name="Capa 2"><g id="Layer_3" data-name="Layer 3"><path class="cls-1" d="M96.65,21.18A24.63,24.63,0,0,0,94,17.9a6.84,6.84,0,0,0,4.78-6.56A6.53,6.53,0,0,0,97,6.84c-1.54-1.59-3.93-2.3-7.74-2.3H74.07c-.36,3.49-.55,7.65-.55,11.38s.19,7.42.56,11.38h7c-.31-2.94-.46-5.47-.56-8.45h7.09a25.15,25.15,0,0,1,2.25,3.06,33.38,33.38,0,0,1,2.72,5.39h7.87a50,50,0,0,0-3.84-6.12M90,14.64H80.56c0-1.68.07-3.59.21-5.84H87c2.28,0,3.39.28,4.1,1a2.6,2.6,0,0,1,.68,1.81A3.47,3.47,0,0,1,90,14.64ZM7.17,16.11A104.05,104.05,0,0,1,6.62,27.3H.55A106.91,106.91,0,0,1,0,16.12,112.9,112.9,0,0,1,.55,4.54H6.62C7,7.77,7.18,12.1,7.17,16.11Zm105.09,0a104.05,104.05,0,0,1-.55,11.19h-6.07a106.91,106.91,0,0,1-.55-11.18,110,110,0,0,1,.56-11.58h6.06C112,7.77,112.27,12.1,112.26,16.11ZM140.56,15a93.36,93.36,0,0,0-6.06-10.5h-7.19a99.29,99.29,0,0,0-6,10.47,120.18,120.18,0,0,0-5.48,12.29h7.43a44.58,44.58,0,0,1,1.59-4.22H137c.58,1.35,1.11,2.71,1.59,4.22H146C144.71,23.88,142.79,19.42,140.56,15Zm-14.09,3.83c1.5-3.35,2.87-6.14,4.43-9,1.53,2.75,2.91,5.53,4.44,9ZM36.2,15a5.36,5.36,0,0,0,2.71-4.66,4.88,4.88,0,0,0-1.68-4c-2-1.66-5.54-1.8-9.36-1.8H14.94c-.36,3.4-.55,7.69-.55,11.38s.17,7.32.55,11.38H28.36c4.75,0,7.68-.55,9.49-1.79a6,6,0,0,0,2.26-5A5.79,5.79,0,0,0,36.2,15ZM21.64,8.85h5.95c2.41,0,3.21.18,3.9.88a2.42,2.42,0,0,1,.56,1.68A2.87,2.87,0,0,1,31,13.75H21.43C21.45,12,21.52,10.46,21.64,8.85ZM32.49,22.11a4.47,4.47,0,0,1-3.25.89h-7.6c-.15-1.81-.21-3.64-.21-5.13H30a3.3,3.3,0,0,1,2.42.64,2.12,2.12,0,0,1,.77,1.74A2.5,2.5,0,0,1,32.49,22.11ZM67.65,27.3H45.94c-.31-3.63-.56-7.68-.56-11.37s.22-7.78.55-11.39H67.66c-.15,1.61-.24,2.94-.31,4.54H52.59c-.13,1.52-.17,3.34-.17,4.58H66.05V18H52.42c0,1.53.06,3.1.17,4.81H67.37C67.45,24.4,67.54,25.79,67.65,27.3Z"/><path class="cls-1" d="M156.74,34.72c13.2-13.26,32.08-20.64,44.59-21L197,24.91c-5.11,11.89-13.86,20.62-51,20.62l10.7-10.81"/><path class="cls-2" d="M169.64,21.66l12-12.19C187.5,3.67,189.79,0,206.6,0l-2.77,7.22c-11.36,1.28-22.76,6.23-34.19,14.44"/></g></g></svg>