<svg xmlns="http://www.w3.org/2000/svg" viewBox="0 0 455.74 249.68"><defs><style>.cls-1{fill:#ff5a00;}.cls-1,.cls-2{fill-rule:evenodd;}.cls-2{fill:#babbbb;}</style></defs><title>aeroRecurso 1gol</title><g id="Capa_2" data-name="Capa 2"><g id="Capa_1-2" data-name="Capa 1"><path class="cls-1" d="M93.61,0a93.16,93.16,0,0,1,47.68,13L120,44.57a55.69,55.69,0,1,0,11.77,89.59V113.57H95.21V75.64h69.25v1.68h5.24v69.24h-.09l.58.9A93.61,93.61,0,1,1,93.61,0Z"/><path class="cls-1" d="M233.68,0a93.61,93.61,0,1,1-93.61,93.61A93.61,93.61,0,0,1,233.68,0Zm0,37.93A55.69,55.69,0,1,1,178,93.61a55.68,55.68,0,0,1,55.69-55.68Z"/><path class="cls-2" d="M289.71,0a93.58,93.58,0,1,1-78.55,42.67,55.79,55.79,0,0,1,50.53,2.81,55.68,55.68,0,1,0,50.53-2.81,93.77,93.77,0,0,0-50.53-38.4,93.65,93.65,0,0,1,28-4.27Z"/><polygon class="cls-1" points="354.2 0 392.13 0 392.13 187.22 354.2 187.22 354.2 0 354.2 0"/><polygon class="cls-1" points="354.2 187.22 354.2 149.3 455.74 149.3 455.74 187.22 354.2 187.22 354.2 187.22"/><path class="cls-1" d="M15.28,240.92H30.12v-3H18.72l-.08-25.24H15.16l.12,28.25Zm297.34-29.76h6l.12,29.76h-3.48l-.1-26.31h-2.51v-3.45Zm-63.88,9.48h5.93l.08,20.28h-3.48l0-16.84h-2.5v-3.44Zm-217.59,0h5.93l.08,20.28H33.68l0-16.84h-2.5v-3.44Zm4.42-3.44a1.85,1.85,0,0,0,1.94-2.35A2.6,2.6,0,0,0,35,212.67,1.86,1.86,0,0,0,33.18,215a2.5,2.5,0,0,0,2.39,2.18Zm11.19,23.72-.07-9.85c0-5,2.89-8,5.36-8s3.48,1.51,3.87,3.52a17.34,17.34,0,0,1,.26,2.6l0,11.73h3.44l0-11.86a18.61,18.61,0,0,0-.26-3.27c-.82-4.23-3.81-5.61-6.24-5.61a7,7,0,0,0-6.64,4.44H46.4l-.27-4H43c.12,1.67.21,3.64.18,5.91l.11,14.37Zm22.38,0-.09-10.18c0-4.53,2.75-7.67,5.43-7.67a3.68,3.68,0,0,1,3.78,3.31,16,16,0,0,1,.3,2.81v11.73h3.48L82,229a17.91,17.91,0,0,0-.32-3.39c-.79-4.07-3.78-5.45-6.09-5.45a6.89,6.89,0,0,0-6.47,4H69l0-13H65.55l.11,29.76Zm35.63,0a46.18,46.18,0,0,1-1-9.39l0-10.6a22.5,22.5,0,0,0-5.63-.75c-8.85,0-12.61,7.42-11.23,14.5.75,3.86,3.52,6.71,7.13,6.71,2.89,0,5.41-1.47,6.77-5.7H101c.15,2.09.32,4,.55,5.23Zm-4.42-11.56c0,5.4-2.67,9.18-5.56,9.18-2.68,0-3.91-2.23-4.35-4.49-1.1-5.66,2.16-11.11,7.44-11.11a7.76,7.76,0,0,1,2.45.3l0,6.12Zm8.59,10.6a10.89,10.89,0,0,0,5.34,1.38c4.28,0,7.25-2.39,6.42-6.66-.44-2.26-2.3-4.07-4.8-5.32-2-1-3.19-1.93-3.47-3.4-.34-1.76.91-3.06,3-3.06a8.33,8.33,0,0,1,3.7.92l.45-2.64a9.65,9.65,0,0,0-4.43-1c-4.27,0-6.8,2.72-6.12,6.24.41,2.1,2.06,3.9,4.65,5.2,2.37,1.17,3.27,2.14,3.58,3.73.35,1.8-.87,3.31-3.21,3.31a10.56,10.56,0,0,1-4.61-1.26l-.51,2.56Zm41,1a45.4,45.4,0,0,1-1-9.39l0-10.6a22.65,22.65,0,0,0-5.64-.75c-8.84,0-12.6,7.42-11.23,14.5.75,3.86,3.53,6.71,7.13,6.71,2.9,0,5.42-1.47,6.78-5.7h.08a52.46,52.46,0,0,0,.56,5.23Zm-4.43-11.56c0,5.4-2.66,9.18-5.55,9.18-2.69,0-3.91-2.23-4.35-4.49-1.1-5.66,2.16-11.11,7.44-11.11a7.86,7.86,0,0,1,2.45.3v6.12Zm23,7.83a9.71,9.71,0,0,1-5.18,1.39,5.68,5.68,0,0,1-5-2.73,9.22,9.22,0,0,1-1.17-3.85c7.53.12,13.25-1.26,12.22-6.58-.57-2.94-3.11-5.24-7-5.24-6.54,0-9.72,6.91-8.54,13,.87,4.49,3.94,8.18,9.3,8.18a12.63,12.63,0,0,0,6.4-1.6l-1-2.6Zm-2.53-11.73c.62,3.18-3.51,3.94-9,3.85.27-3.18,2.11-6.41,5.42-6.41,1.85,0,3.29.92,3.6,2.56ZM163,212.17l-3,6h2.73l4.41-6Zm14.51,28.75-.06-8.92c0-4.74,1.94-8.39,5-8.39a5.37,5.37,0,0,1,1,.09v-3.44a8.27,8.27,0,0,0-1-.08c-2.73,0-4.5,2.09-5.26,4.86H177c-.09-1.55-.2-3-.31-4.4h-3.06c.16,1.88.34,4.57.4,7.21l.06,13.07Zm23-3.73a9.74,9.74,0,0,1-5.18,1.39,5.7,5.7,0,0,1-5.06-2.73,9.52,9.52,0,0,1-1.17-3.85c7.53.12,13.26-1.26,12.22-6.58-.57-2.94-3.11-5.24-7-5.24-6.54,0-9.73,6.91-8.54,13,.87,4.49,3.93,8.18,9.3,8.18a12.66,12.66,0,0,0,6.4-1.6l-1-2.6ZM198,225.46c.62,3.18-3.51,3.94-9,3.85.26-3.18,2.11-6.41,5.42-6.41,1.84,0,3.28.92,3.6,2.56Zm24.84,15.46a46.18,46.18,0,0,1-1-9.39l0-10.6a22.5,22.5,0,0,0-5.63-.75c-8.85,0-12.61,7.42-11.23,14.5.75,3.86,3.52,6.71,7.13,6.71,2.89,0,5.41-1.47,6.77-5.7H219a52.46,52.46,0,0,0,.56,5.23Zm-4.43-11.56c.05,5.4-2.66,9.18-5.55,9.18-2.68,0-3.91-2.23-4.35-4.49-1.1-5.66,2.16-11.11,7.44-11.11a7.76,7.76,0,0,1,2.45.3v6.12ZM227,240a10.89,10.89,0,0,0,5.34,1.38c4.28,0,7.25-2.39,6.42-6.66-.44-2.26-2.3-4.07-4.8-5.32-2-1-3.19-1.93-3.47-3.4-.34-1.76.91-3.06,3-3.06a8.37,8.37,0,0,1,3.7.92l.45-2.64a9.65,9.65,0,0,0-4.43-1c-4.27,0-6.81,2.72-6.12,6.24.4,2.1,2,3.9,4.65,5.2,2.37,1.17,3.27,2.14,3.58,3.73.35,1.8-.87,3.31-3.22,3.31a10.55,10.55,0,0,1-4.6-1.26L227,240Zm26.14-22.76a1.86,1.86,0,0,0,1.94-2.35,2.6,2.6,0,0,0-2.52-2.18,1.86,1.86,0,0,0-1.81,2.35,2.5,2.5,0,0,0,2.39,2.18Zm11.19,23.72-.07-9.85c0-5,2.89-8,5.36-8s3.48,1.51,3.87,3.52a16.07,16.07,0,0,1,.25,2.6l.06,11.73h3.44l0-11.86a18.61,18.61,0,0,0-.26-3.27c-.82-4.23-3.81-5.61-6.24-5.61a7.06,7.06,0,0,0-6.65,4.44H264l-.27-4h-3.1c.11,1.67.2,3.64.18,5.91l.11,14.37Zm19.56-24v3.77H281l0,2.72H284l0,10.27a19,19,0,0,0,.27,3.77,4.75,4.75,0,0,0,5,3.94,7.59,7.59,0,0,0,2.62-.37l-.37-2.73a5.72,5.72,0,0,1-1.6.17,2.18,2.18,0,0,1-2.31-2,14.92,14.92,0,0,1-.21-3.23l-.06-9.85h4.86v-2.72h-4.86l0-4.87-3.43,1.1Zm25.69,20.32a9.7,9.7,0,0,1-5.17,1.39,5.69,5.69,0,0,1-5.06-2.73A9.52,9.52,0,0,1,298.2,232c7.53.12,13.25-1.26,12.22-6.58-.57-2.94-3.11-5.24-7-5.24-6.54,0-9.72,6.91-8.53,13,.87,4.49,3.93,8.18,9.3,8.18a12.59,12.59,0,0,0,6.39-1.6l-1-2.6Zm-2.52-11.73c.61,3.18-3.52,3.94-9,3.85.26-3.18,2.11-6.41,5.42-6.41,1.84,0,3.28.92,3.6,2.56Zm21.19,15.46-.08-20.28h-3.44l0,20.28Zm-1.59-23.72a1.85,1.85,0,0,0,1.94-2.35,2.6,2.6,0,0,0-2.52-2.18,1.86,1.86,0,0,0-1.81,2.35,2.5,2.5,0,0,0,2.39,2.18Zm8.38,31.06a13.53,13.53,0,0,0,6.35,1.42c2.31,0,4.94-.5,6.66-2.22s2.34-4.77,2.3-9.09l-.11-16.77a19,19,0,0,0-6.82-1.42c-7.84,0-11.54,6.83-10.21,13.7.7,3.61,3.46,7,7.57,7a6.47,6.47,0,0,0,6.21-4.31h.08l-.08,3.06c-.1,5.49-2.45,7.21-5.89,7.21a12,12,0,0,1-5.63-1.34l-.43,2.72Zm11.8-17.81c0,3.94-2.28,7.71-5.25,7.71s-4.45-2.6-4.85-4.86c-1-5,1.52-10.32,6.6-10.32a10,10,0,0,1,3.48.67l0,6.8Zm22.9,6.74a9.76,9.76,0,0,1-5.18,1.39,5.69,5.69,0,0,1-5.06-2.73,9.52,9.52,0,0,1-1.17-3.85c7.53.12,13.25-1.26,12.22-6.58-.57-2.94-3.11-5.24-7-5.24-6.54,0-9.72,6.91-8.53,13,.87,4.49,3.93,8.18,9.3,8.18a12.59,12.59,0,0,0,6.39-1.6l-1-2.6Zm-2.53-11.73c.61,3.18-3.52,3.94-9,3.85.26-3.18,2.11-6.41,5.42-6.41,1.84,0,3.28.92,3.6,2.56Zm11.59,15.46-.07-9.85c-.05-5,2.89-8,5.37-8s3.47,1.51,3.86,3.52a16.12,16.12,0,0,1,.26,2.6l.05,11.73h3.44l0-11.86a18.61,18.61,0,0,0-.26-3.27c-.82-4.23-3.81-5.61-6.24-5.61a7,7,0,0,0-6.64,4.44h-.09l-.27-4h-3.1c.12,1.67.21,3.64.19,5.91l.1,14.37Zm19.56-24,0,3.77h-2.89l0,2.72h2.89l0,10.27a18.25,18.25,0,0,0,.27,3.77,4.73,4.73,0,0,0,5,3.94,7.53,7.53,0,0,0,2.61-.37l-.36-2.73a5.84,5.84,0,0,1-1.61.17,2.18,2.18,0,0,1-2.31-2,14.32,14.32,0,0,1-.2-3.23l-.07-9.85h4.86l0-2.72h-4.86l0-4.87-3.43,1.1Zm25.7,20.32a9.74,9.74,0,0,1-5.18,1.39,5.7,5.7,0,0,1-5.06-2.73,9.52,9.52,0,0,1-1.17-3.85c7.53.12,13.26-1.26,12.22-6.58-.57-2.94-3.11-5.24-7-5.24-6.54,0-9.73,6.91-8.54,13,.87,4.49,3.93,8.18,9.3,8.18a12.59,12.59,0,0,0,6.39-1.6l-1-2.6Zm-2.53-11.73c.62,3.18-3.51,3.94-9,3.85.26-3.18,2.11-6.41,5.42-6.41,1.84,0,3.28.92,3.6,2.56Zm7.13,14.5a10.89,10.89,0,0,0,5.34,1.38c4.28,0,7.25-2.39,6.42-6.66-.44-2.26-2.3-4.07-4.8-5.32-2.05-1-3.19-1.93-3.47-3.4-.34-1.76.91-3.06,3-3.06a8.37,8.37,0,0,1,3.7.92l.45-2.64a9.65,9.65,0,0,0-4.43-1c-4.27,0-6.81,2.72-6.12,6.24.4,2.1,2.05,3.9,4.65,5.2,2.37,1.17,3.27,2.14,3.58,3.73.35,1.8-.87,3.31-3.22,3.31a10.55,10.55,0,0,1-4.6-1.26l-.51,2.56Z"/></g></g></svg>