<svg xmlns="http://www.w3.org/2000/svg" width="24.834" height="23.69" viewBox="0 0 24.834 23.69">
  <g id="Grupo_92" data-name="Grupo 92" transform="translate(0 3.369)">
    <g id="Grupo_90" data-name="Grupo 90" transform="translate(0 9.012)">
      <path id="Trazado_134" data-name="Trazado 134" d="M-140.362,597.973a10.386,10.386,0,0,1,2.034.335l.169.059a.4.4,0,0,0,.051.015c1.893.446,5.726,1.37,11.085,2.673l.038.009.03.007a2.48,2.48,0,0,0,.445.042,2.317,2.317,0,0,0,.744-.127l.023-.008.062-.023a.507.507,0,0,0,.145-.07l8.443-5.846a2.057,2.057,0,0,0,.447-.315l.021-.02a1.84,1.84,0,0,0,.587-1.34,1.929,1.929,0,0,0-1.8-1.891,1.862,1.862,0,0,0-.62-.01,1.854,1.854,0,0,0-.255.054,1.742,1.742,0,0,0-.3.118c-.05.024-.1.051-.155.082l-.05.031-.927.641-5.085,3.149a1.511,1.511,0,0,1-.245.009c-.3-.07-1.384-.341-3.222-.805l-.082-.021c-.413-.113-.834-.219-1.24-.313-.569-.143-1.019-.258-1.2-.3a.838.838,0,0,1-.416-.714.859.859,0,0,1,.713-.834h3.241a1.4,1.4,0,0,0,1.431-1.365,1.4,1.4,0,0,0-1.431-1.366h-3.5c-.452-.013-1.017-.019-1.713-.019a6.415,6.415,0,0,0-3.724,1.23c-.224.149-.441.3-.656.455a5.166,5.166,0,0,1-3.1,1.3.51.51,0,0,0-.409.2.461.461,0,0,0-.087.359l-.007,3.761a.492.492,0,0,0,.007.086v.292A.491.491,0,0,0-140.362,597.973Zm.5-1.355v-2.89a6.629,6.629,0,0,0,3.187-1.467c.207-.147.416-.3.632-.439a5.391,5.391,0,0,1,3.148-1.057c.687,0,1.242.006,1.7.019h3.515a.416.416,0,0,1,.425.405.416.416,0,0,1-.425.405h-3.286a.49.49,0,0,0-.082.006,1.832,1.832,0,0,0-1.591,1.787,1.8,1.8,0,0,0,.984,1.581.533.533,0,0,0,.112.043c.1.027.608.155,1.28.325q.6.14,1.218.308l.092.023c1.98.5,3.057.77,3.294.822a.673.673,0,0,0,.088.013,2.34,2.34,0,0,0,.656-.048.508.508,0,0,0,.153-.063l5.177-3.2.021-.013.911-.63.013-.008a.825.825,0,0,1,.085-.045.927.927,0,0,1,.136-.055.907.907,0,0,1,.113-.023.883.883,0,0,1,.3.006.556.556,0,0,0,.058.008.957.957,0,0,1,.908.937.91.91,0,0,1-.294.664l-.009.009a1.034,1.034,0,0,1-.241.166.468.468,0,0,0-.066.039l-.357.248-8.056,5.578-.039.015a1.254,1.254,0,0,1-.641.049l-.025-.006c-5.338-1.3-9.163-2.22-11.068-2.669L-138,597.4a.469.469,0,0,0-.052-.015,14.9,14.9,0,0,0-1.809-.34Z" transform="translate(140.872 -589.805)" fill="#012566"/>
    </g>
    <g id="Grupo_99" data-name="Grupo 99" transform="translate(7.4 -3.369)">
      <path id="Trazado_146" data-name="Trazado 146" d="M305.646,399.7h.037a5.024,5.024,0,0,0,4.879-5.148,5.178,5.178,0,0,0-1.462-3.6,4.791,4.791,0,0,0-3.487-1.476,5.025,5.025,0,0,0-4.88,5.147h0a5.183,5.183,0,0,0,1.463,3.6A4.783,4.783,0,0,0,305.646,399.7Zm-.029-9.741h.032a4.309,4.309,0,0,1,3.106,1.331,4.7,4.7,0,0,1,1.325,3.266,4.542,4.542,0,0,1-4.4,4.663,4.3,4.3,0,0,1-3.138-1.33,4.7,4.7,0,0,1-1.326-3.267A4.543,4.543,0,0,1,305.617,389.957Z" transform="translate(-300.734 -389.476)" fill="#012566"/>
      <path id="Trazado_147" data-name="Trazado 147" d="M308.252,402.272h2.475v-2.4h2.3v-2.559h-2.3v-2.4h-2.475v2.4h-2.3v2.559h2.3Zm-.614-2.88h-1.206v-1.6h2.3v-2.4h1.511v2.4h2.3v1.6h-2.3v2.4h-1.511v-2.4Z" transform="translate(-304.575 -393.483)" fill="#012566"/>
    </g>
  </g>
</svg>
