<svg xmlns="http://www.w3.org/2000/svg" width="18.915" height="21.364" viewBox="0 0 18.915 21.364">
  <g id="Grupo_84" data-name="Grupo 84" transform="translate(0 0)">
    <path id="Trazado_108" data-name="Trazado 108" d="M224.528,890.469a2.081,2.081,0,1,0-.487-.058A2.1,2.1,0,0,0,224.528,890.469Zm-.561-2.984a1.062,1.062,0,0,1,.805-.128,1.066,1.066,0,1,1-1.285.788A1.056,1.056,0,0,1,223.967,887.484Z" transform="translate(-212.517 -884.5)" fill="#012566"/>
    <path id="Trazado_109" data-name="Trazado 109" d="M201.715,895.341l1.756.286a7.467,7.467,0,0,0,14.384,3.445l1.694.54a.5.5,0,0,0,.6-.713l-1.459-2.825a.5.5,0,0,0-.68-.216l-2.825,1.458a.5.5,0,0,0,.078.929l1.626.519a6.476,6.476,0,0,1-5.944,4.034l3.024-12.627a3.891,3.891,0,1,0-3.007-.72l-3.023,12.627a6.478,6.478,0,0,1-3.472-6.289l1.684.274a.527.527,0,0,0,.081.007.5.5,0,0,0,.409-.8l-1.857-2.58a.505.505,0,0,0-.7-.115l-2.58,1.857a.5.5,0,0,0,.214.908Zm16.311,1.645.668,1.294-1.962-.626Zm-6-7.639a.505.505,0,0,0-.228-.548,2.882,2.882,0,1,1,1.723.413.506.506,0,0,0-.452.386l-3.1,12.952-1.043-.249Zm-7.765,4.342.851,1.182-2.033-.331Z" transform="translate(-201.291 -882.445)" fill="#012566"/>
  </g>
</svg>
