<svg xmlns="http://www.w3.org/2000/svg" width="21" height="21.54" viewBox="0 0 21 21.54">
  <g id="Grupo_87" data-name="Grupo 87" transform="translate(220.298 -468.413)">
    <path id="Trazado_113" data-name="Trazado 113" d="M-199.834,477.145h-9.35v-8.2a.537.537,0,0,0-.536-.536h-10.042a.536.536,0,0,0-.536.536v3.558l.037,17.445h20.427a.536.536,0,0,0,.536-.536V477.681A.536.536,0,0,0-199.834,477.145Zm-5.84,7.281h1.788v4.669h-1.788Zm5.3,4.455h-2.873V484.1a.321.321,0,0,0-.322-.321H-206a.322.322,0,0,0-.322.321v4.777h-2.873V478.218h8.82Zm-9.892-11.2v11.2h-3.083V484.1a.322.322,0,0,0-.322-.321H-216.1a.322.322,0,0,0-.322.321v4.777h-2.8V469.486h8.969v8.13A.461.461,0,0,0-210.263,477.681Zm-5.514,11.413v-4.669h1.788v4.669Z" fill="#012566"/>
    <path id="Trazado_114" data-name="Trazado 114" d="M-213.069,474.643h-2.4a.321.321,0,0,0-.321.321v2.4a.321.321,0,0,0,.321.322h2.4a.322.322,0,0,0,.322-.322v-2.4A.322.322,0,0,0-213.069,474.643Zm-.322,2.4h-1.759v-1.758h1.759Z" transform="translate(-2.258 -3.122)" fill="#012566"/>
    <path id="Trazado_115" data-name="Trazado 115" d="M-205.759,474.643h-2.4a.321.321,0,0,0-.322.321v2.4a.321.321,0,0,0,.322.322h2.4a.322.322,0,0,0,.322-.322v-2.4A.322.322,0,0,0-205.759,474.643Zm-.321,2.4h-1.759v-1.758h1.759Z" transform="translate(-5.921 -3.122)" fill="#012566"/>
    <path id="Trazado_116" data-name="Trazado 116" d="M-213.069,482.526h-2.4a.322.322,0,0,0-.321.322v2.4a.322.322,0,0,0,.321.322h2.4a.322.322,0,0,0,.322-.322v-2.4A.322.322,0,0,0-213.069,482.526Zm-.322,2.4h-1.759V483.17h1.759Z" transform="translate(-2.258 -7.072)" fill="#012566"/>
    <path id="Trazado_117" data-name="Trazado 117" d="M-205.759,482.526h-2.4a.322.322,0,0,0-.322.322v2.4a.322.322,0,0,0,.322.322h2.4a.322.322,0,0,0,.322-.322v-2.4A.322.322,0,0,0-205.759,482.526Zm-.321,2.4h-1.759V483.17h1.759Z" transform="translate(-5.921 -7.072)" fill="#012566"/>
    <path id="Trazado_118" data-name="Trazado 118" d="M-213.069,490.41h-2.4a.321.321,0,0,0-.321.322v2.4a.322.322,0,0,0,.321.322h2.4a.322.322,0,0,0,.322-.322v-2.4A.322.322,0,0,0-213.069,490.41Zm-.322,2.4h-1.759v-1.759h1.759Z" transform="translate(-2.258 -11.023)" fill="#012566"/>
    <path id="Trazado_119" data-name="Trazado 119" d="M-205.759,490.41h-2.4a.321.321,0,0,0-.322.322v2.4a.322.322,0,0,0,.322.322h2.4a.322.322,0,0,0,.322-.322v-2.4A.322.322,0,0,0-205.759,490.41Zm-.321,2.4h-1.759v-1.759h1.759Z" transform="translate(-5.921 -11.023)" fill="#012566"/>
    <path id="Trazado_120" data-name="Trazado 120" d="M-195.579,493.456h2.4a.322.322,0,0,0,.322-.322v-2.4a.322.322,0,0,0-.322-.322h-2.4a.322.322,0,0,0-.322.322v2.4A.322.322,0,0,0-195.579,493.456Zm.322-2.4h1.759v1.759h-1.759Z" transform="translate(-12.226 -11.023)" fill="#012566"/>
    <path id="Trazado_121" data-name="Trazado 121" d="M-188.269,493.456h2.4a.322.322,0,0,0,.322-.322v-2.4a.322.322,0,0,0-.322-.322h-2.4a.322.322,0,0,0-.322.322v2.4A.322.322,0,0,0-188.269,493.456Zm.322-2.4h1.759v1.759h-1.759Z" transform="translate(-15.889 -11.023)" fill="#012566"/>
  </g>
</svg>
