<svg xmlns="http://www.w3.org/2000/svg" viewBox="0 0 299.75 54.71"><defs><style>.cls-1{fill:#7c7c7c;}.cls-2{fill:#80bd35;}</style></defs><title>logodutyduty</title><g id="Capa_2" data-name="Capa 2"><g id="Layer_3" data-name="Layer 3"><rect class="cls-1" x="185.37" width="1.68" height="54.71"/><path class="cls-1" d="M10.5,43.15a10.48,10.48,0,0,1,2-.17,3.42,3.42,0,0,1,2.3.61,1.76,1.76,0,0,1,.69,1.48,2,2,0,0,1-1.41,1.84v0A2.16,2.16,0,0,1,15.78,49a2.27,2.27,0,0,1-.7,1.68,4.25,4.25,0,0,1-2.9.78,12.55,12.55,0,0,1-1.68-.1Zm1.08,3.43h1c1.14,0,1.81-.59,1.81-1.4,0-1-.75-1.37-1.84-1.37a5.46,5.46,0,0,0-1,.07Zm0,4a6.92,6.92,0,0,0,.91,0c1.12,0,2.15-.41,2.15-1.63s-1-1.62-2.16-1.62h-.9Z"/><path class="cls-1" d="M17.61,48.61a1.93,1.93,0,0,0,2.06,2.09,4,4,0,0,0,1.67-.31l.19.78a5,5,0,0,1-2,.37,2.79,2.79,0,0,1-2.95-3c0-1.81,1.06-3.25,2.82-3.25a2.55,2.55,0,0,1,2.48,2.84c0,.22,0,.4,0,.51Zm3.21-.78a1.56,1.56,0,0,0-1.52-1.78,1.82,1.82,0,0,0-1.68,1.78Z"/><path class="cls-1" d="M23,47c0-.62,0-1.13-.05-1.63h1l.06,1h0a2.21,2.21,0,0,1,2-1.14c.84,0,2.13.5,2.13,2.57v3.59H27V48c0-1-.36-1.78-1.4-1.78a1.54,1.54,0,0,0-1.46,1.12,1.56,1.56,0,0,0-.08.51v3.62H23Z"/><path class="cls-1" d="M30.24,48.61A1.93,1.93,0,0,0,32.3,50.7,4.09,4.09,0,0,0,34,50.39l.18.78a4.91,4.91,0,0,1-2,.37,2.8,2.8,0,0,1-3-3c0-1.81,1.07-3.25,2.82-3.25A2.55,2.55,0,0,1,34.5,48.1a4.58,4.58,0,0,1,0,.51Zm3.2-.78a1.55,1.55,0,0,0-1.51-1.78,1.82,1.82,0,0,0-1.68,1.78Z"/><path class="cls-1" d="M35.72,51.42V46.23h-.85V45.4h.85v-.32a2.41,2.41,0,0,1,2.62-2.62,3.05,3.05,0,0,1,1.53.39l-.31.84a2.29,2.29,0,0,0-1.27-.35c-1.16,0-1.49.81-1.49,1.76v.3h3.49v6H39.21V46.23H36.8v5.19Z"/><path class="cls-1" d="M46.14,51.19a4,4,0,0,1-1.72.35,2.86,2.86,0,0,1-3-3.07,3.06,3.06,0,0,1,3.23-3.19,3.66,3.66,0,0,1,1.52.31l-.25.84a2.53,2.53,0,0,0-1.27-.28,2.27,2.27,0,0,0,0,4.52,3.06,3.06,0,0,0,1.35-.3Z"/><path class="cls-1" d="M48.39,43.71a.64.64,0,0,1-.69.67.65.65,0,0,1-.66-.67.66.66,0,0,1,.68-.68A.65.65,0,0,1,48.39,43.71Zm-1.22,7.71v-6h1.1v6Z"/><path class="cls-1" d="M55.28,48.36a2.94,2.94,0,0,1-3,3.19,2.85,2.85,0,0,1-2.88-3.09,2.94,2.94,0,0,1,3-3.2A2.85,2.85,0,0,1,55.28,48.36Zm-4.78.06c0,1.32.76,2.31,1.83,2.31s1.83-1,1.83-2.33c0-1-.51-2.31-1.8-2.31S50.5,47.28,50.5,48.42Z"/><path class="cls-1" d="M56.26,50.3a2.85,2.85,0,0,0,1.44.43c.8,0,1.17-.39,1.17-.89s-.31-.81-1.12-1.11c-1.08-.38-1.59-1-1.59-1.7a1.86,1.86,0,0,1,2.08-1.77,3,3,0,0,1,1.47.38l-.27.79a2.35,2.35,0,0,0-1.23-.34c-.65,0-1,.37-1,.82s.36.72,1.15,1c1,.39,1.58.91,1.58,1.81,0,1.06-.83,1.8-2.25,1.8A3.4,3.4,0,0,1,56,51.13Z"/><path class="cls-1" d="M64.58,44H62V43h6.2V44H65.68v7.46h-1.1Z"/><path class="cls-1" d="M71.42,51.42l-.09-.76h0a2.26,2.26,0,0,1-1.84.89,1.71,1.71,0,0,1-1.84-1.72c0-1.46,1.29-2.25,3.61-2.24v-.12a1.24,1.24,0,0,0-1.36-1.4,3,3,0,0,0-1.57.45l-.25-.72a3.78,3.78,0,0,1,2-.54c1.84,0,2.29,1.26,2.29,2.47V50a7.94,7.94,0,0,0,.1,1.44Zm-.16-3.07c-1.19,0-2.55.18-2.55,1.35a1,1,0,0,0,1,1,1.51,1.51,0,0,0,1.46-1,1.43,1.43,0,0,0,.06-.35Z"/><path class="cls-1" d="M73.83,47.28c0-.71,0-1.32,0-1.88h1l0,1.18h0a1.82,1.82,0,0,1,1.67-1.32,1.37,1.37,0,0,1,.31,0v1a2,2,0,0,0-.37,0A1.53,1.53,0,0,0,75,47.7a3.67,3.67,0,0,0,0,.51v3.21H73.83Z"/><path class="cls-1" d="M76.18,53.16a1.8,1.8,0,0,0,1.19-.46c.3-.35.41-.82.41-2.26v-5h1.1v5.46a3.3,3.3,0,0,1-.72,2.47,2.77,2.77,0,0,1-1.87.69ZM79,43.71a.64.64,0,0,1-.68.67.65.65,0,0,1-.67-.67.66.66,0,0,1,.69-.68A.65.65,0,0,1,79,43.71Z"/><path class="cls-1" d="M81,48.61a1.93,1.93,0,0,0,2.06,2.09,4.06,4.06,0,0,0,1.67-.31l.18.78a4.91,4.91,0,0,1-2,.37,2.8,2.8,0,0,1-3-3c0-1.81,1.07-3.25,2.82-3.25a2.55,2.55,0,0,1,2.49,2.84,4.58,4.58,0,0,1,0,.51Zm3.2-.78a1.55,1.55,0,0,0-1.51-1.78A1.82,1.82,0,0,0,81,47.83Z"/><path class="cls-1" d="M87.71,43.67V45.4h1.57v.83H87.71v3.25c0,.75.21,1.17.82,1.17a2.32,2.32,0,0,0,.64-.08l0,.82a2.66,2.66,0,0,1-1,.15,1.51,1.51,0,0,1-1.18-.46,2.16,2.16,0,0,1-.43-1.56V46.23h-.93V45.4h.93V44Z"/><path class="cls-1" d="M93.59,51.42l-.09-.76h0a2.26,2.26,0,0,1-1.84.89,1.71,1.71,0,0,1-1.84-1.72c0-1.46,1.29-2.25,3.61-2.24v-.12A1.24,1.24,0,0,0,92,46.07a3,3,0,0,0-1.57.45l-.25-.72a3.78,3.78,0,0,1,2-.54c1.84,0,2.28,1.26,2.28,2.47V50a9,9,0,0,0,.1,1.44Zm-.16-3.07c-1.19,0-2.55.18-2.55,1.35a1,1,0,0,0,1,1,1.51,1.51,0,0,0,1.46-1,1.43,1.43,0,0,0,.06-.35Z"/><path class="cls-1" d="M95.85,50.3a2.88,2.88,0,0,0,1.44.43c.8,0,1.17-.39,1.17-.89s-.31-.81-1.12-1.11c-1.08-.38-1.59-1-1.59-1.7a1.86,1.86,0,0,1,2.08-1.77,3,3,0,0,1,1.48.38l-.28.79a2.32,2.32,0,0,0-1.23-.34c-.64,0-1,.37-1,.82s.36.72,1.14,1c1,.39,1.58.91,1.58,1.81,0,1.06-.82,1.8-2.25,1.8a3.4,3.4,0,0,1-1.69-.41Z"/><path class="cls-1" d="M103.1,43.15a10.45,10.45,0,0,1,2-.17,3.42,3.42,0,0,1,2.3.61,1.74,1.74,0,0,1,.7,1.48,2,2,0,0,1-1.42,1.84v0a2.16,2.16,0,0,1,1.73,2.1,2.27,2.27,0,0,1-.71,1.68,4.22,4.22,0,0,1-2.89.78,12.55,12.55,0,0,1-1.68-.1Zm1.08,3.43h1c1.14,0,1.81-.59,1.81-1.4,0-1-.74-1.37-1.83-1.37a5.37,5.37,0,0,0-1,.07Zm0,4a6.81,6.81,0,0,0,.91,0c1.11,0,2.15-.41,2.15-1.63s-1-1.62-2.17-1.62h-.89Z"/><path class="cls-1" d="M112.88,51.42l-.09-.76h0a2.23,2.23,0,0,1-1.84.89,1.71,1.71,0,0,1-1.84-1.72c0-1.46,1.3-2.25,3.62-2.24v-.12a1.25,1.25,0,0,0-1.37-1.4,3,3,0,0,0-1.56.45l-.25-.72a3.77,3.77,0,0,1,2-.54c1.84,0,2.29,1.26,2.29,2.47V50a9,9,0,0,0,.1,1.44Zm-.16-3.07c-1.2,0-2.55.18-2.55,1.35a1,1,0,0,0,1,1,1.49,1.49,0,0,0,1.45-1,1.09,1.09,0,0,0,.07-.35Z"/><path class="cls-1" d="M115.29,47c0-.62,0-1.13-.05-1.63h1l.06,1h0a2.21,2.21,0,0,1,2-1.14c.84,0,2.13.5,2.13,2.57v3.59h-1.09V48c0-1-.37-1.78-1.4-1.78a1.54,1.54,0,0,0-1.46,1.12,1.56,1.56,0,0,0-.08.51v3.62h-1.09Z"/><path class="cls-1" d="M126.22,51.19a3.94,3.94,0,0,1-1.72.35,2.86,2.86,0,0,1-3-3.07,3.06,3.06,0,0,1,3.23-3.19,3.66,3.66,0,0,1,1.52.31l-.25.84a2.53,2.53,0,0,0-1.27-.28,2.27,2.27,0,0,0,0,4.52,3,3,0,0,0,1.34-.3Z"/><path class="cls-1" d="M132.62,48.36a2.94,2.94,0,0,1-3,3.19,2.85,2.85,0,0,1-2.88-3.09,2.94,2.94,0,0,1,3-3.2A2.85,2.85,0,0,1,132.62,48.36Zm-4.77.06c0,1.32.76,2.31,1.83,2.31s1.83-1,1.83-2.33c0-1-.51-2.31-1.81-2.31S127.85,47.28,127.85,48.42Z"/><path class="cls-1" d="M141.34,42.59v7.27c0,.54,0,1.15,0,1.56h-1l-.05-1.05h0a2.23,2.23,0,0,1-2.05,1.18c-1.46,0-2.57-1.23-2.57-3,0-2,1.23-3.24,2.69-3.24a2,2,0,0,1,1.82.93h0v-3.6Zm-1.1,5.26a1.8,1.8,0,0,0-.05-.46,1.62,1.62,0,0,0-1.58-1.27c-1.13,0-1.8,1-1.8,2.33s.6,2.22,1.78,2.22a1.64,1.64,0,0,0,1.6-1.3,1.82,1.82,0,0,0,.05-.48Z"/><path class="cls-1" d="M143.51,48.61a1.93,1.93,0,0,0,2.06,2.09,4,4,0,0,0,1.67-.31l.19.78a5,5,0,0,1-2,.37,2.79,2.79,0,0,1-2.95-3c0-1.81,1.07-3.25,2.82-3.25a2.55,2.55,0,0,1,2.48,2.84c0,.22,0,.4,0,.51Zm3.21-.78a1.56,1.56,0,0,0-1.52-1.78,1.82,1.82,0,0,0-1.68,1.78Z"/><path class="cls-1" d="M157.16,51.14a5.39,5.39,0,0,1-2.22.4,3.92,3.92,0,0,1-4.14-4.24,4.17,4.17,0,0,1,4.38-4.4,4.49,4.49,0,0,1,2,.38l-.26.88a3.94,3.94,0,0,0-1.69-.35A3.12,3.12,0,0,0,152,47.27a3,3,0,0,0,3.22,3.36,4.31,4.31,0,0,0,1.76-.34Z"/><path class="cls-1" d="M158.22,42.59h1.1v3.76h0a2.06,2.06,0,0,1,.78-.77,2.25,2.25,0,0,1,1.12-.32c.81,0,2.1.5,2.1,2.58v3.58h-1.09V48c0-1-.36-1.79-1.39-1.79a1.58,1.58,0,0,0-1.47,1.1,1.37,1.37,0,0,0-.07.52v3.63h-1.1Z"/><path class="cls-1" d="M166.09,43.71a.65.65,0,0,1-.7.67.66.66,0,0,1-.66-.67.67.67,0,0,1,.69-.68A.65.65,0,0,1,166.09,43.71Zm-1.22,7.71v-6H166v6Z"/><path class="cls-1" d="M167.53,42.59h1.1v8.83h-1.1Z"/><path class="cls-1" d="M170.82,48.61a1.93,1.93,0,0,0,2.07,2.09,4,4,0,0,0,1.66-.31l.19.78a5,5,0,0,1-2,.37,2.8,2.8,0,0,1-3-3c0-1.81,1.07-3.25,2.82-3.25a2.55,2.55,0,0,1,2.49,2.84,4.58,4.58,0,0,1,0,.51Zm3.21-.78a1.56,1.56,0,0,0-1.52-1.78,1.81,1.81,0,0,0-1.67,1.78Z"/><path class="cls-1" d="M174.65,35.64H157.17V3.8H153.9V38.48h20.75Zm-27.29,0H127.77V22h17.46V19.18H127.77V6.72h18.87V3.8H124.47V38.48h22.89ZM115.69,3.8,104.37,34.92,93.45,3.8H89.93l12.69,34.68H106L119,3.8ZM70,24.7,76.81,7.25,84,24.7ZM78.56,3.8H75.13L61,38.48h3.55l4.35-11H85.11l4.52,11h3.7ZM42.73,6.7A19.94,19.94,0,0,1,47,7.08,6.27,6.27,0,0,1,49.73,8.4a5.49,5.49,0,0,1,1.55,2.1,6.66,6.66,0,0,1,.48,2.58q0,6.61-9.19,6.62H33.44V6.7Zm8.78,21.58a16.85,16.85,0,0,0-6.35-6q10.05-1,10.05-9.26a9.38,9.38,0,0,0-1.24-5,8.21,8.21,0,0,0-3.59-3.16A13.1,13.1,0,0,0,44.72,3.8H30.13V38.48h3.31V22.54h5a9.61,9.61,0,0,1,3.73.71,8.67,8.67,0,0,1,2.93,2,47.18,47.18,0,0,1,4.15,5.87l4.68,7.33h4.19ZM24.56,3.8H0v3H10.6V38.48h3.32V6.83H24.56Z"/><path class="cls-2" d="M212.11,14.49c8,0,13.51,4.4,13.51,13.42,0,8.85-4.32,13.84-11.5,13.84a10.39,10.39,0,0,1-6.54-2.26l-.3,1.84h-3.44V14.49Zm9,13.42c0-6.21-3.53-9.9-9.23-9.9h-3.65V36.13a8.14,8.14,0,0,0,5.33,2C218.7,38.1,221.13,34.12,221.13,27.91Z"/><path class="cls-2" d="M248.19,41.33l-.71-4.69a10.59,10.59,0,0,1-9.11,5.11c-4.82,0-7.8-2.6-7.8-9.14V14.49h4.49V31.9c0,4,1.42,6.08,4.91,6.08s7.17-2.73,7.17-7.93V14.49h4.45V41.33Z"/><path class="cls-2" d="M267,41.33h-4.49V18.09H254.4v-3.6h20.68v3.6H267Z"/><path class="cls-2" d="M286.33,41.33V31.64l-9-17.15h4.74l4.82,9.81a25,25,0,0,1,1.55,3.61h.17a18.58,18.58,0,0,1,1.51-3.61L295,14.49h4.74l-9,17.15v9.69Z"/></g></g></svg>