<?xml version="1.0" encoding="utf-8"?>
<!-- Generator: Adobe Illustrator 23.0.3, SVG Export Plug-In . SVG Version: 6.00 Build 0)  -->
<svg version="1.1" id="Capa_1" xmlns="http://www.w3.org/2000/svg" xmlns:xlink="http://www.w3.org/1999/xlink" x="0px" y="0px"
	 viewBox="0 0 391.8 120.1" style="enable-background:new 0 0 391.8 120.1;" xml:space="preserve">
<style type="text/css">
	.st0{fill:#002566;}
	.st1{fill:#263A7A;}
</style>
<title>Recurso 1</title>
<g>
	<g id="Capa_1-2">
		<path class="st0" d="M21.9,106.1h-5.5l2.2-5.7l0.7-2l0.7,2L21.9,106.1z M28.1,114.2l-6.4-17.9h-4.6l-7.3,17.9h3.3l2.2-5.6h7.5
			l2,5.6L28.1,114.2z"/>
		<path class="st0" d="M39.4,114.6c-6,0-9.6-3.7-9.6-9.2c0-5.9,3.7-9.3,9.6-9.3c1.9-0.1,3.8,0.3,5.5,1L44,99.6
			c-1.5-0.5-3.1-0.8-4.6-0.7c-3.4,0-6.3,1.7-6.3,6.3c0,4.8,3.2,6.6,6.6,6.6c0.7,0,1.4,0,2.1-0.1v-5.4H45v7.5
			C43.2,114.3,41.3,114.6,39.4,114.6"/>
		<polygon class="st0" points="51,114.2 51,96.3 63.3,96.3 63.3,99 54.2,99 54.2,103.9 62.7,103.9 62.7,106.5 54.2,106.5 
			54.2,111.6 64.1,111.6 64.1,114.2 		"/>
		<polygon class="st0" points="81.7,114.2 72.8,99.8 72.9,102.4 72.9,114.2 69.7,114.2 69.7,96.3 74.2,96.3 83.2,111.2 83.1,108.2 
			83.1,96.3 86.3,96.3 86.3,114.2 		"/>
		<path class="st0" d="M101,114.6c-6.1,0-9.6-3.8-9.6-9.2c0-5.8,3.4-9.3,9.6-9.3c1.9-0.1,3.8,0.2,5.6,1l-0.9,2.5
			c-1.5-0.5-3.1-0.8-4.6-0.7c-3.4,0-6.3,1.8-6.3,6.3s3,6.6,6.8,6.6c1.4,0,2.9-0.2,4.3-0.6l0.8,2.6
			C104.8,114.3,102.9,114.6,101,114.6"/>
		<rect x="111.1" y="96.3" class="st0" width="3.3" height="17.9"/>
		<path class="st0" d="M129.8,106.1h-5.5l2.2-5.7l0.7-2l0.7,2L129.8,106.1z M136,114.2l-6.4-17.9H125l-7.3,17.9h3.3l2.2-5.6h7.5
			l2,5.6L136,114.2z"/>
		<path class="st0" d="M162.4,105.5c0,4.1-2.3,6-6.6,6h-3V99.1h2.4C159.7,99.1,162.3,101,162.4,105.5 M165.6,105.2
			c0-6.3-4.4-8.9-10.4-8.9h-5.8v17.9h5.9C161.6,114.2,165.6,111.6,165.6,105.2"/>
		<polygon class="st0" points="170.8,114.2 170.8,96.3 183.1,96.3 183.1,99 174,99 174,103.9 182.5,103.9 182.5,106.5 174,106.5 
			174,111.6 183.9,111.6 183.9,114.2 		"/>
		<polygon class="st0" points="207.6,114.2 202.6,114.2 196.4,96.3 199.9,96.3 204.3,109.3 205.3,112.4 206.5,109.2 211.6,96.3 
			214.8,96.3 		"/>
		<rect x="218.5" y="96.3" class="st0" width="3.3" height="17.9"/>
		<path class="st0" d="M237.3,106.1h-5.5l2.2-5.7l0.7-2l0.7,2L237.3,106.1z M243.5,114.2l-6.4-17.9h-4.6l-7.3,17.9h3.3l2.2-5.6h7.5
			l2,5.6L243.5,114.2z"/>
		<path class="st0" d="M245.1,120.1l-1.3-2.4c3.7-2.1,4.5-4,4.5-8.1V96.3h3.3v13.2C251.5,114,250.5,117.9,245.1,120.1"/>
		<polygon class="st0" points="257.7,114.2 257.7,96.3 270,96.3 270,99 260.9,99 260.9,103.9 269.4,103.9 269.4,106.5 260.9,106.5 
			260.9,111.6 270.8,111.6 270.8,114.2 		"/>
		<path class="st0" d="M280.9,114.7c-2.3,0.1-4.6-0.4-6.7-1.4l1-2.6c1.8,0.7,3.7,1.1,5.6,1.2c2.3,0,4.1-0.6,4.1-2.5
			c0-3.3-10-2.5-10-8.7c0-3.3,3.2-4.7,6.7-4.7c2-0.1,4,0.3,5.9,1.1l-0.9,2.5c-1.6-0.5-3.2-0.8-4.9-0.8c-2.2,0-3.5,0.6-3.5,2
			c0,3.3,10,3.1,10,8.6C288.4,113.5,284.6,114.7,280.9,114.7"/>
		<path class="st1" d="M391.1,9.4c0,4.4-3.6,8.1-8,8.1s-8.1-3.6-8.1-8c0-4.4,3.6-8.1,8-8.1c0,0,0,0,0,0
			C387.5,1.4,391.1,4.9,391.1,9.4 M391.8,9.4c0-4.8-3.9-8.7-8.7-8.7c-4.8,0-8.7,3.9-8.7,8.7c0,4.8,3.9,8.7,8.7,8.7
			C387.8,18.1,391.7,14.2,391.8,9.4"/>
		<path class="st1" d="M385.2,7c0,0.2-0.1,0.4-0.2,0.6c-0.1,0.2-0.3,0.3-0.5,0.4c-0.4,0.1-0.7,0.2-1.1,0.1h-2.1V6h2.4
			c0.4,0,0.8,0.1,1.2,0.3C385.1,6.5,385.2,6.8,385.2,7 M386.5,8.9c0.5-0.5,0.7-1.2,0.7-1.9c0-0.6-0.2-1.1-0.4-1.6
			c-0.3-0.5-0.7-0.8-1.2-1c-0.6-0.2-1.3-0.3-2-0.3h-4.4V14h2v-4h1c0.2,0,0.4,0,0.6,0c0.1,0,0.3,0.1,0.4,0.2c0.2,0.1,0.4,0.3,0.5,0.5
			c0.2,0.3,0.5,0.7,0.8,1.2l1.3,2.1h2.5l-2-3.1c-0.3-0.5-0.6-0.9-1-1.3C385.8,9.5,386.2,9.3,386.5,8.9"/>
		<path class="st1" d="M21.3,7.7h11.8c1.8,0,3.3-1.5,3.3-3.4c0-0.1,0-0.1,0-0.2c0.1-1.8-1.3-3.4-3.1-3.5c-0.1,0-0.1,0-0.2,0H3.3
			C1.4,0.7,0,2.2,0,4c0,0.1,0,0.1,0,0.2C-0.1,6,1.3,7.6,3.1,7.7c0.1,0,0.1,0,0.2,0h11.8v65c0,3.2,1.1,4.9,3.1,4.9s3.1-1.7,3.1-4.9
			V7.7z"/>
		<path class="st1" d="M71.3,22.7c0,9-4.6,13.7-12.7,13.7H47.9V7.7h10.7C66.9,7.7,71.3,12.7,71.3,22.7 M77.5,21.3
			C77.5,10.7,71,0.6,59,0.6H45.6c-2.9,0-3.9,1.5-3.9,4.1v68c0,3.2,1.1,4.9,3.1,4.9s3.1-1.7,3.1-4.9V43.1l24.4,32.8
			c0.9,1.3,1.7,1.7,2.8,1.7c1.6-0.1,2.9-1.6,2.7-3.2c0.1-1.2-0.4-2.4-1.2-3.3L55.5,42.9h5.7C70.9,42.9,77.5,33.5,77.5,21.3"/>
		<path class="st1" d="M119.2,53.3H93.7l12.7-43.2h0.2L119.2,53.3z M131.5,74.6c0-1.1-0.3-2.2-0.6-3.2L111.3,5.6
			c-0.8-2.5-1.7-5.6-4.8-5.6s-4,3.1-4.8,5.6L82,71.4c-0.3,1-0.6,2.1-0.6,3.2c-0.1,1.5,0.9,2.8,2.4,3c0.1,0,0.2,0,0.3,0
			c2.2,0,2.7-1.6,3.4-3.5l4-13.7h29.7l4,13.7c0.6,1.9,1.3,3.5,3.4,3.5c1.5,0,2.7-1.2,2.8-2.7C131.4,74.8,131.4,74.7,131.5,74.6"/>
		<path class="st1" d="M151.6,64.8h-0.2L134.6,3.2c-0.5-2-1.5-3.2-3-3.2c-1.9,0-3.1,1.5-3.1,3.6c0.2,1.8,0.6,3.6,1.2,5.4l18.1,63.9
			c0.6,2.2,1.5,4.7,3.7,4.7s3.1-2.6,3.7-4.7L173.3,9c0.6-1.7,1-3.5,1.2-5.4c0-2.1-1.2-3.6-3.1-3.6c-1.6,0-2.5,1.2-3,3.2L151.6,64.8z
			"/>
		<path class="st1" d="M186.9,42.4h17.1c1.8,0,3.3-1.5,3.3-3.3c0-0.1,0-0.1,0-0.2c0.1-1.8-1.2-3.4-3.1-3.5c-0.1,0-0.1,0-0.2,0H187
			V7.7h17.8c1.8,0,3.3-1.5,3.3-3.4c0-0.1,0-0.1,0-0.2c0.1-1.8-1.3-3.4-3.1-3.5c-0.1,0-0.1,0-0.2,0h-20.2c-2.7,0-3.8,1.4-3.8,4.1
			v68.2c0,2.7,1,4.1,3.8,4.1h21.1c2-0.1,3.4-1.9,3.3-3.8c-0.1-1.8-1.5-3.1-3.3-3.3h-18.7L186.9,42.4z"/>
		<path class="st1" d="M224.6,4.9c0-3.2-1.1-4.9-3.1-4.9s-3.1,1.7-3.1,4.9v68.2c0,2.1,1.4,3.9,3.1,3.9h19.2c2-0.1,3.4-1.9,3.3-3.8
			c-0.1-1.8-1.5-3.1-3.3-3.3h-16.1V4.9z"/>
		<path class="st1" d="M282.4,20.7c0-2.1-2.1-5.1-3.5-5.1c-0.5,0-0.9,0.3-0.9,0.8c0,0.1,0,0.1,0,0.2c0,0.6,0.2,1.1,0.3,1.7
			c0.2,0.5,0.3,1,0.3,1.5c0,6.4-8.1,11.4-18.4,11.4c-10.7,0-17.4-4.4-17.4-11.4S253.7,2,267.2,2c1.5,0,3.5,0.1,5.3,0.3
			c1.5,0.1,2.7,0.2,3.5,0.2s1.6-0.1,2.5-0.1s1.3-0.1,1.8-0.1c2.1,0,2.8,0.8,2.8,2.9c0,1.2-1.1,2.9-3.6,2.9c-1,0-2.1-0.3-2.9-0.9
			c-0.3-0.2-0.6-0.3-0.9-0.4c-0.4,0-0.8,0.3-0.8,0.7c0,0,0,0.1,0,0.1c0,1.1,2.4,2.4,5.9,2.4c4.5,0,7.9-3.1,7.9-5.8
			c0-2.2-1.8-4-4-4.1c-0.5,0-1.3,0.1-2.3,0.1c-1.6,0.1-3.9,0.3-6.5,0.3c-2.2,0-4.4-0.2-6.2-0.3C268.5,0.1,267.6,0,267,0
			c-8.9,0-18,3.2-23.6,8.3c-4.2,3.8-6.8,7.1-6.8,11.6c0,7.7,9.3,13.1,22.6,13.1C270.3,33,282.5,28.3,282.4,20.7"/>
		<path class="st1" d="M302.2,9.1l0.1-0.3c1-1.9,3.6-6.8,7.9-6.8c1.4-0.1,2.8,0.4,3.9,1.3c0.3,0.3,0.6,0.4,1,0.5c0.5,0,1-0.3,1-0.8
			c0,0,0-0.1,0-0.1c0-1.8-3.5-2.9-6-2.9c-5.9,0-9.8,4.7-12.5,8.1c-0.3,0.4-0.6,0.7-0.9,1c-2.5,3.3-4.8,6.7-6.9,10.2
			c-3.1,4.9-6.3,10-8.1,11.1c-0.6,0.4-1.3,0.6-2.1,0.6c-0.5,0-0.9,0-1.4-0.1l-0.3,0c-0.9,0-1.4,0.3-1.4,0.8c0,0.9,1.2,1.2,4.1,1.2
			h0.5c0.7,0,1.4,0,2-0.1c1.4-0.1,2.7-0.1,4.1,0c0.7,0,1.4,0.1,2.2,0.1c1.2,0,3.7,0,3.7-1.4c0-0.2-0.1-0.7-0.9-0.7
			c-0.2,0-0.4,0-0.6,0c-0.2,0-0.4,0.1-0.6,0.1c-1.5,0-1.5-0.2-1.5-0.7c0-0.8,2.9-5.3,5.4-9.3S300.3,12.7,302.2,9.1"/>
		<path class="st1" d="M327.2,19.1c0.1-0.1,0.2-0.2,0.3-0.3c0.2-0.2,0.4-0.4,0.4-0.7c0-0.3-0.2-0.8-1.2-0.8
			c-1.7,0.3-3.5,0.6-5.2,1.1c-4.5,1.1-4.5,1.3-4.5,1.7c0,0.5,0.4,0.8,0.8,0.8c0,0,0.1,0,0.1,0c0.7,0,1.3-0.1,2-0.3
			c-0.8,0.9-1.5,1.7-2.3,2.6s-1.3,1.5-1.9,2.2c-2.7,3.1-4.9,5.5-10.8,5.5c-1.9,0-3-0.9-3-2.4c0-1.3,3.3-4.6,5.5-6.8
			c2.4-2.4,3-3.1,3-3.6c-0.1-0.5-0.6-0.9-1.1-0.9c-0.3,0-3.7,0.8-5.5,1.2c-5.6,1.3-5.6,1.5-5.6,1.9c0,0.8,0.5,0.9,0.9,0.9
			c1-0.1,2-0.3,3-0.5h0.1c-0.5,0.5-1,1-1.5,1.4c-2.1,2.1-4.4,4.2-4.4,6.6s2.9,4.1,7.4,4.1c2.3,0.1,4.5-0.3,6.6-1c0,0.1,0,0.2,0,0.3
			c0,0.2,0.1,0.8,0.9,0.8c0.4,0,0.8-0.1,1.1-0.2c0.4-0.1,0.8-0.2,1.3-0.2c0.7,0,1.3,0,2,0.1c1.1,0.1,2.3,0.2,3.4,0.2
			c0.8,0,3-0.2,3-1.2c0-0.5-0.5-0.8-1.2-0.8c-0.2,0-0.5,0-0.7,0.1c-0.2,0-0.4,0-0.6,0c-1.4,0-1.5-0.2-1.5-0.6c0-0.8,3.4-4.7,5.4-7
			C324.9,22.1,326.1,20.7,327.2,19.1"/>
		<path class="st1" d="M344.4,18.7c2.4,0,5.2,0.5,5.2,2.8c0,4.2-9,9.5-16,9.5c-1.5,0-3-0.2-4.4-0.8l0.5-0.4c2-1.8,3.7-3.7,5.2-5.9
			C336.8,21.4,339.2,18.7,344.4,18.7 M367.8,3.6c0-1.9-3.8-3.6-8-3.6c-8.5,0-15.6,5.6-19,8.9c-3.9,3.8-5.5,6-9.5,11.6
			c-1.6,2.2-3.4,4.3-5.3,6.2c-1,1-1.5,1.5-1.5,2.1c0,2.1,5.8,4.2,10.1,4.2c6.1,0,8.4-0.4,12.6-2.3c2-0.9,8.4-4.2,8.4-8.6
			c0-3.7-5-5.3-9.6-5.3c-2.1,0-4.1,0.2-6.1,0.7l1.7-2.2C345.8,9.6,351.8,2,359.8,2c4.1,0,5.4,1.3,6.1,2c0.2,0.3,0.6,0.5,1,0.6
			C367.4,4.6,367.8,4.2,367.8,3.6C367.8,3.7,367.9,3.7,367.8,3.6"/>
	</g>
</g>
</svg>
