<svg id="Grupo_82" data-name="Grupo 82" xmlns="http://www.w3.org/2000/svg" width="18.981" height="18.62" viewBox="0 0 18.981 18.62">
  <path id="Trazado_106" data-name="Trazado 106" d="M116.371,688.265h-4.5a2.678,2.678,0,0,0-2.675,2.675v1.391a4.9,4.9,0,0,0-4.456,4.873v4.786a4.9,4.9,0,0,0,4.9,4.895h9.191a4.863,4.863,0,0,0,2.367-.612c.011-.007.023-.012.033-.019a4.9,4.9,0,0,0,2.494-4.263V697.2a4.9,4.9,0,0,0-4.673-4.889V690.94A2.678,2.678,0,0,0,116.371,688.265Zm6.26,13.726a3.794,3.794,0,0,1-1.171,2.741V694.465a3.791,3.791,0,0,1,1.171,2.74ZM105.826,697.2a3.793,3.793,0,0,1,1.231-2.795v10.376a3.794,3.794,0,0,1-1.231-2.8Zm10.545-7.852a1.589,1.589,0,0,1,1.588,1.588v1.37h-1.166v-.768a1.581,1.581,0,0,0-1.579-1.579h-2.187a1.581,1.581,0,0,0-1.579,1.579v.768h-1.166v-1.37a1.589,1.589,0,0,1,1.587-1.588Zm4.009,4.382a.55.55,0,0,0-.008.077v11.655a3.769,3.769,0,0,1-1.378.324V693.407A3.767,3.767,0,0,1,120.38,693.734Zm-9.77,12.064V693.4h7.3v12.4Zm-2.466-.3V693.811a.582.582,0,0,0-.01-.1,3.755,3.755,0,0,1,1.388-.3v12.389A3.767,3.767,0,0,1,108.145,705.494Zm7.56-13.184h-3.17v-.768a.492.492,0,0,1,.492-.491h2.187a.492.492,0,0,1,.491.491Z" transform="translate(-104.738 -688.265)" fill="#012566"/>
</svg>
