<svg xmlns="http://www.w3.org/2000/svg" viewBox="0 0 23.1 21.01"><defs><style>.cls-1{fill:#012566;}</style></defs><title>Recurso 1</title><g id="Capa_2" data-name="Capa 2"><g id="Capa_1-2" data-name="Capa 1"><path id="plane-flying_icon-icons.com_55565" data-name="plane-flying icon-icons.com 55565" class="cls-1" d="M19.61,18.73c.3-.91-.29-3.25-.4-3.65l-1-7.81,4-4.2c.22-.3,1.3-1.83.56-2.69s-2.34,0-2.56.13L15.18,4.17,8.12,2.42a9.28,9.28,0,0,0-3.4-.82A8.08,8.08,0,0,0,2.18,3.43a.46.46,0,0,0-.14.4.47.47,0,0,0,.24.35l8,4.39L5,14.18l-.21.18c-.8-.32-2.65-1-3.49-.81a3.14,3.14,0,0,0-1.21,1,.46.46,0,0,0,0,.61.4.4,0,0,0,.12.1L2.93,16.8l.89,1,1.26,2.89A.48.48,0,0,0,5.7,21l.07,0a2.77,2.77,0,0,0,1-1c.33-.87-.18-3-.42-3.85l6.79-4.61L17,20.6a.47.47,0,0,0,.62.25l.11-.07A6.8,6.8,0,0,0,19.61,18.73Zm-5.75-8a.47.47,0,0,0-.07-.12l-.09-.1a.47.47,0,0,0-.62-.08l-7.3,5a1.37,1.37,0,0,1-.2.13.48.48,0,0,0-.2.54,10.18,10.18,0,0,1,.55,3.55,1,1,0,0,1-.21.19L4.66,17.39a.36.36,0,0,0-.08-.12l-1-1.15L3.47,16,1.22,14.73a1.59,1.59,0,0,1,.32-.26,9.42,9.42,0,0,1,3.2.88.44.44,0,0,0,.52-.11l.41-.38,5.75-6.08a.5.5,0,0,0,.13-.4.53.53,0,0,0-.11-.24L11.31,8l-8-4.37A5.79,5.79,0,0,1,4.9,2.53a9.35,9.35,0,0,1,2.93.78l7.33,1.83a.45.45,0,0,0,.39-.07L20.8,1.3C21.29,1,22,.83,22.13,1s-.13.86-.57,1.45L17.39,6.8a.47.47,0,0,0-.09.48l1,8a9.4,9.4,0,0,1,.44,3.16,5.22,5.22,0,0,1-1.12,1.22Z"/></g></g></svg>